<?xml version="1.0" standalone="no"?>
<!DOCTYPE svg PUBLIC "-//W3C//DTD SVG 20010904//EN"
 "http://www.w3.org/TR/2001/REC-SVG-20010904/DTD/svg10.dtd">
<svg version="1.0" xmlns="http://www.w3.org/2000/svg"
 width="1704.000000pt" height="1704.000000pt" viewBox="0 0 1704.000000 1704.000000"
 preserveAspectRatio="xMidYMid meet">
<metadata>
Created by potrace 1.14, written by Peter Selinger 2001-2017
</metadata>
<g transform="translate(0.000000,1704.000000) scale(0.100000,-0.100000)"
fill="#000000" stroke="none">
<path d="M14599 12375 c-2 -2 -62 -6 -134 -9 -71 -3 -141 -8 -155 -11 -14 -2
-52 -7 -85 -10 -97 -11 -98 -11 -140 -25 -163 -52 -297 -183 -474 -465 -81
-127 -150 -231 -171 -252 -11 -12 -20 -25 -20 -28 0 -11 -95 -95 -107 -95 -7
0 -13 -4 -13 -9 0 -31 -250 -46 -455 -27 -247 23 -372 29 -575 29 -177 1 -364
-8 -415 -18 -11 -2 -39 -7 -62 -10 -104 -13 -129 -16 -142 -21 -8 -3 -30 -7
-50 -10 -60 -9 -230 -53 -309 -79 -7 -3 -13 -4 -15 -4 -26 -1 -258 -96 -377
-156 -77 -38 -281 -154 -290 -165 -9 -10 -185 -112 -196 -114 -7 -1 -18 -7
-25 -13 -23 -19 -245 -106 -282 -111 -13 -2 -81 -14 -102 -19 -85 -18 -358
-22 -570 -8 -208 14 -488 9 -585 -9 -14 -3 -41 -8 -60 -10 -19 -3 -46 -8 -60
-11 -14 -3 -38 -8 -55 -10 -16 -3 -37 -8 -45 -10 -8 -2 -26 -6 -40 -9 -14 -3
-36 -7 -50 -10 -22 -5 -80 -16 -165 -31 -16 -2 -41 -7 -53 -10 -13 -2 -63 -7
-110 -10 -48 -3 -103 -8 -122 -10 -19 -3 -170 -7 -335 -9 -165 -2 -406 -8
-535 -12 -293 -9 -793 -10 -965 -1 -184 10 -294 17 -340 22 -22 2 -71 7 -110
10 -38 4 -83 8 -100 10 -16 2 -53 6 -80 9 -28 3 -64 7 -80 10 -17 2 -59 8 -95
11 -36 4 -74 9 -85 11 -11 2 -40 6 -65 9 -25 3 -56 8 -70 10 -14 3 -43 7 -65
11 -22 3 -51 7 -65 10 -14 2 -47 7 -74 10 -28 3 -53 7 -56 9 -4 2 -29 7 -56
10 -49 6 -71 10 -109 18 -11 3 -40 8 -65 12 -25 4 -52 9 -61 10 -9 2 -32 6
-50 9 -19 3 -43 7 -54 10 -11 2 -54 9 -95 16 -41 6 -86 14 -100 16 -45 8 -84
13 -130 19 -25 2 -56 7 -70 9 -27 5 -122 16 -185 21 -22 2 -62 6 -90 10 -54 6
-152 13 -285 21 -120 8 -695 8 -814 1 -95 -6 -160 -12 -256 -22 -25 -3 -70 -7
-100 -10 -30 -3 -64 -7 -76 -9 -12 -2 -45 -7 -74 -11 -29 -4 -62 -9 -74 -11
-19 -3 -76 -13 -121 -20 -11 -1 -65 -12 -120 -24 -55 -12 -109 -23 -120 -25
-11 -1 -27 -5 -35 -9 -8 -3 -26 -7 -40 -10 -14 -2 -43 -9 -65 -15 -22 -6 -44
-11 -50 -12 -5 -1 -20 -5 -33 -10 -12 -5 -33 -11 -45 -13 -69 -14 -442 -149
-522 -189 -22 -11 -42 -20 -45 -20 -11 0 -255 -130 -258 -138 -2 -5 -9 -9 -14
-9 -13 0 -112 -61 -116 -72 -2 -5 -8 -8 -13 -8 -9 0 -120 -74 -209 -139 -104
-76 -234 -181 -296 -238 -13 -12 -31 -27 -41 -35 -10 -7 -31 -28 -48 -47 l-30
-33 30 13 c17 7 37 18 45 25 8 7 18 13 22 13 5 1 34 13 65 27 131 59 376 154
498 194 72 23 137 45 145 48 19 7 17 6 65 20 22 6 43 12 47 12 4 1 22 6 40 11
39 12 52 16 98 28 53 13 252 59 280 64 14 3 65 12 113 21 48 9 92 14 97 11 6
-3 10 -2 10 3 0 5 6 9 13 9 6 0 32 3 57 6 101 14 194 24 280 32 123 11 351 18
580 18 301 -1 398 -6 570 -28 19 -3 55 -7 80 -10 60 -7 129 -18 176 -29 12 -2
39 -7 60 -10 22 -4 47 -9 56 -12 17 -5 44 -11 88 -20 14 -3 45 -11 70 -18 25
-7 47 -14 50 -14 6 -1 12 -3 110 -32 67 -20 221 -72 260 -87 8 -4 17 -7 20 -8
3 -1 14 -5 25 -10 11 -4 72 -28 135 -52 63 -25 129 -51 145 -58 17 -7 69 -29
118 -49 48 -20 106 -45 130 -55 108 -50 340 -136 502 -186 66 -21 127 -40 135
-43 8 -3 18 -6 23 -7 4 -2 8 -3 10 -5 1 -1 9 -3 17 -5 8 -2 49 -13 90 -24 111
-31 342 -92 363 -97 10 -2 26 -5 35 -8 9 -3 28 -7 42 -10 34 -7 55 -11 125
-29 33 -8 96 -22 140 -31 44 -10 91 -20 105 -23 43 -10 134 -29 180 -37 14 -2
32 -7 40 -10 8 -3 31 -7 50 -10 19 -3 46 -8 60 -11 14 -2 36 -7 50 -10 14 -2
41 -7 60 -11 19 -3 40 -7 45 -8 11 -3 62 -13 110 -21 17 -3 66 -13 110 -21 73
-14 114 -21 170 -29 11 -2 20 -4 20 -5 0 -1 9 -3 20 -5 11 -1 36 -6 55 -9 19
-4 73 -13 120 -21 47 -9 99 -18 115 -21 17 -3 68 -12 115 -20 47 -8 94 -17
105 -19 11 -2 34 -6 50 -9 40 -6 152 -44 190 -65 111 -58 222 -156 416 -366
45 -49 148 -147 202 -193 177 -148 539 -329 697 -348 25 -2 52 -7 60 -9 64
-17 355 -26 464 -14 61 7 139 19 143 23 1 0 -31 35 -70 77 -87 92 -95 102
-196 228 -88 111 -281 396 -286 421 0 3 -20 37 -43 77 -23 39 -42 74 -42 76 0
3 -20 47 -44 98 -35 77 -62 144 -71 179 -1 3 -5 12 -8 20 -12 27 -56 200 -51
200 3 0 0 9 -6 20 -6 11 -7 20 -3 20 5 0 18 -30 31 -66 45 -128 131 -292 237
-449 38 -57 162 -224 174 -235 3 -3 30 -34 60 -70 30 -36 62 -73 70 -82 9 -9
45 -49 81 -88 36 -39 145 -152 243 -251 l177 -179 -62 -68 c-60 -64 -68 -73
-95 -106 -7 -8 -13 -19 -13 -25 0 -5 -4 -11 -8 -13 -15 -6 -90 -146 -120 -224
-30 -78 -56 -168 -67 -231 -3 -18 -8 -48 -11 -65 -3 -18 -7 -52 -9 -75 -1 -23
-5 -45 -7 -50 -6 -10 -2 -176 6 -263 3 -36 8 -96 11 -135 7 -84 15 -167 20
-215 24 -202 24 -258 0 -334 -16 -50 -104 -211 -124 -226 -4 -3 -24 -32 -45
-64 -47 -71 -44 -80 39 -108 33 -12 74 -32 92 -45 43 -33 91 -138 118 -259 2
-11 14 -53 25 -94 12 -41 23 -82 25 -90 6 -30 67 -185 89 -230 12 -25 23 -47
23 -50 2 -14 43 -79 85 -135 49 -65 144 -155 164 -155 7 0 14 -4 16 -9 8 -22
243 -115 340 -135 13 -3 32 -7 43 -9 55 -12 102 -20 120 -22 11 -2 45 -6 75
-11 30 -4 138 -8 240 -8 167 -1 216 2 315 19 55 10 115 36 130 58 20 29 19 78
-2 107 -29 39 -123 127 -152 141 -14 8 -32 20 -40 27 -14 14 -231 122 -253
126 -7 2 -25 8 -39 14 -27 11 -119 34 -207 51 -29 6 -69 18 -90 28 -20 9 -40
17 -44 17 -4 1 -13 7 -19 14 -7 6 -17 12 -22 12 -15 0 -130 101 -168 147 -41
50 -101 147 -130 209 -39 85 -62 154 -85 259 -3 11 -7 47 -10 80 -20 230 26
375 230 733 144 252 154 272 148 272 -4 0 -2 4 5 8 31 20 123 279 167 472 13
54 99 390 106 415 16 51 20 86 27 215 16 307 3 694 -31 865 -2 11 -7 42 -10
68 -7 46 -13 78 -20 102 -3 9 -14 63 -20 95 -9 46 -48 178 -77 258 -10 28 -16
52 -13 52 4 0 2 6 -4 13 -6 6 -20 36 -32 66 -36 92 -81 181 -143 286 -33 55
-63 102 -66 105 -3 3 -13 14 -21 25 l-15 20 24 -20 c42 -35 55 -49 124 -136
103 -128 107 -133 107 -145 0 -6 9 -19 20 -29 11 -10 17 -21 15 -26 -3 -4 -1
-10 4 -13 10 -7 113 -206 105 -206 -2 0 5 -19 17 -41 11 -23 22 -49 25 -58 2
-9 18 -56 34 -105 28 -80 70 -233 85 -308 3 -16 8 -40 11 -55 3 -16 7 -41 10
-58 2 -16 6 -41 8 -55 32 -197 46 -499 34 -745 -3 -55 -1 -56 67 -42 17 3 44
9 60 12 17 3 37 8 45 12 8 3 31 9 50 13 52 12 153 39 170 47 18 8 15 7 70 22
38 10 138 45 240 83 14 5 27 10 30 10 3 0 14 5 25 11 11 6 25 12 30 13 20 4
251 117 300 146 82 51 90 55 95 55 3 -1 14 6 25 15 11 9 65 52 120 95 104 82
221 194 290 277 22 26 48 57 58 69 10 12 27 36 38 54 26 42 33 41 36 0 6 -75
55 -150 127 -191 32 -19 329 -124 363 -128 5 -1 43 -19 86 -41 92 -46 128 -87
122 -138 -3 -30 -30 -110 -55 -164 -28 -62 -29 -122 -1 -140 35 -21 112 -21
174 0 44 15 149 68 172 87 5 5 36 27 68 49 31 22 57 44 57 50 0 5 5 9 11 9 5
0 26 17 45 38 147 155 180 273 100 349 -20 19 -36 31 -36 27 0 -3 -6 -2 -12 4
-13 10 -98 41 -133 48 -11 2 -31 6 -45 9 -24 5 -45 8 -115 20 -16 3 -54 8 -84
11 -30 3 -62 7 -71 9 -8 2 -43 6 -75 10 -75 9 -81 10 -132 24 -36 10 -73 33
-73 46 0 23 37 72 94 125 39 36 94 88 123 116 29 28 55 49 58 46 3 -3 5 0 5 7
0 6 9 22 21 34 78 84 113 183 123 352 3 51 -13 148 -31 185 -46 98 -69 140
-104 194 -22 32 -39 60 -39 63 0 2 -6 10 -12 18 -7 7 -29 32 -48 56 -33 41
-112 118 -190 188 -34 30 -34 31 -7 21 15 -5 41 -17 57 -25 17 -9 30 -13 30
-11 0 10 213 -108 265 -146 6 -4 45 -37 88 -73 75 -62 97 -75 97 -57 0 5 11
21 24 38 13 16 52 65 87 109 144 181 316 336 422 381 54 23 96 23 242 0 68
-11 104 -17 175 -26 41 -6 81 -12 90 -15 8 -2 33 -6 55 -9 55 -7 174 -25 205
-31 14 -3 44 -7 67 -10 58 -7 113 -15 143 -22 14 -3 38 -6 54 -8 16 -2 50 -6
75 -10 91 -15 154 -24 203 -30 21 -3 50 -7 65 -10 16 -3 48 -8 73 -11 25 -3
59 -7 75 -10 59 -10 151 -22 225 -29 14 -1 54 -6 90 -10 201 -23 419 -26 475
-6 48 16 100 76 116 134 13 49 16 157 6 208 l-7 35 -198 79 c-108 43 -217 87
-242 98 -25 10 -54 23 -65 27 -43 16 -112 44 -150 60 -22 9 -56 23 -75 30 -19
7 -59 23 -88 36 -29 13 -57 24 -62 24 -6 0 -18 4 -28 9 -24 13 -89 41 -95 41
-2 0 -22 8 -43 17 -22 9 -41 17 -44 18 -3 1 -18 7 -35 14 -16 7 -39 17 -50 21
-14 6 2 9 50 10 152 3 480 17 480 20 0 0 41 3 90 5 50 3 104 7 120 9 17 2 66
7 110 11 44 4 90 11 103 16 17 6 21 6 16 -3 -4 -6 -3 -8 3 -5 9 6 26 9 106 22
74 13 88 16 114 26 15 6 30 10 33 10 3 -1 28 6 57 15 56 18 100 56 109 95 12
52 12 257 -1 324 -46 250 -205 427 -456 509 -61 19 -227 56 -279 62 -14 1 -34
5 -46 7 -20 5 -107 16 -174 23 -19 1 -55 5 -80 9 -25 3 -76 7 -115 10 -38 3
-101 8 -140 11 -38 3 -101 7 -140 10 -88 6 -991 14 -996 9z m721 -159 c52 -3
125 -6 163 -8 37 -1 67 -6 67 -11 0 -4 8 -3 19 2 10 6 20 8 23 6 2 -3 40 -7
84 -10 43 -3 95 -7 114 -9 19 -3 62 -7 95 -10 102 -11 241 -32 335 -51 14 -3
34 -7 45 -9 77 -16 206 -52 280 -78 64 -23 98 -43 55 -34 -14 3 -41 8 -60 11
-19 2 -46 7 -60 9 -14 2 -56 7 -95 11 -38 4 -77 8 -85 10 -16 3 -116 12 -320
30 -108 9 -349 23 -545 30 -139 5 -602 6 -770 1 -166 -6 -253 -15 -322 -35
-18 -5 -33 -8 -33 -5 0 3 -10 -1 -22 -8 -13 -6 -27 -13 -33 -14 -11 -2 -67
-29 -107 -50 -42 -22 -142 -123 -190 -189 -54 -75 -78 -112 -163 -250 -139
-226 -224 -320 -342 -375 -37 -18 -76 -34 -88 -36 -73 -15 -102 -18 -205 -18
-109 0 -232 6 -455 20 -195 13 -630 7 -721 -10 -10 -2 -39 -7 -64 -10 -25 -3
-56 -8 -70 -11 -14 -3 -45 -8 -70 -11 -73 -9 -75 -10 -85 -16 -6 -3 -30 -9
-55 -13 -25 -4 -72 -16 -104 -26 -33 -11 -69 -21 -80 -24 -145 -32 -429 -163
-659 -303 -37 -23 -70 -42 -74 -42 -3 0 -14 -6 -22 -14 -14 -12 -111 -65 -211
-116 -94 -48 -202 -85 -335 -115 -128 -30 -317 -35 -640 -20 -304 15 -471 10
-650 -19 -60 -9 -101 -16 -125 -21 -14 -3 -38 -7 -55 -9 -16 -2 -68 -11 -115
-20 -95 -17 -153 -26 -190 -31 -14 -1 -47 -5 -75 -9 -130 -15 -178 -18 -440
-23 -408 -7 -1382 -7 -1510 0 -143 8 -247 15 -315 22 -53 6 -133 13 -215 19
-36 3 -70 7 -175 21 -19 2 -57 7 -85 11 -27 3 -77 10 -110 15 -33 4 -80 11
-105 14 -25 3 -56 8 -70 11 -14 3 -38 7 -55 9 -16 2 -43 6 -60 9 -16 4 -46 9
-65 12 -19 3 -45 7 -57 10 -46 9 -70 13 -143 25 -41 7 -77 13 -80 14 -3 1 -27
5 -55 10 -27 4 -59 10 -70 12 -11 2 -33 6 -50 9 -16 3 -52 9 -80 14 -73 14
-105 19 -155 26 -25 3 -54 8 -65 10 -11 3 -36 7 -55 10 -19 2 -46 7 -60 9 -14
3 -43 7 -65 11 -22 3 -51 7 -65 10 -14 2 -45 7 -70 10 -25 3 -52 8 -61 9 -9 2
-52 6 -95 10 -43 4 -88 9 -99 11 -52 10 -393 37 -482 38 -24 1 -43 3 -43 6 0
6 -122 9 -420 9 -268 0 -434 -7 -600 -25 -30 -3 -73 -8 -95 -10 -37 -4 -73
-10 -85 -14 -3 -1 -9 -2 -14 -1 -12 3 -199 -27 -251 -39 -22 -6 -51 -12 -65
-14 -14 -3 -35 -7 -48 -10 -12 -4 -31 -8 -43 -11 -44 -9 -123 -31 -214 -59
-82 -25 -264 -89 -300 -105 -66 -31 -186 -87 -220 -103 -22 -11 -35 -15 -30
-10 30 32 433 217 520 239 6 1 69 20 142 42 125 38 312 83 397 97 21 3 48 8
60 10 28 6 62 11 111 19 22 3 51 8 65 10 59 10 258 33 345 40 285 24 912 24
1181 0 27 -2 85 -7 129 -11 44 -3 96 -8 115 -10 19 -2 60 -7 90 -9 72 -7 98
-10 200 -24 47 -7 103 -14 125 -17 37 -4 122 -16 205 -29 19 -3 53 -8 75 -10
22 -3 51 -9 65 -12 14 -3 32 -7 40 -8 8 -1 42 -5 75 -10 33 -4 69 -9 80 -11
11 -2 34 -5 50 -8 17 -3 44 -7 61 -10 18 -3 49 -8 70 -11 22 -3 48 -7 60 -9
12 -2 45 -7 75 -11 30 -3 61 -8 70 -11 9 -2 36 -6 60 -9 24 -2 60 -6 79 -10
19 -3 49 -8 65 -10 113 -12 155 -17 190 -22 65 -9 71 -9 315 -29 399 -32 2001
-18 2330 20 85 10 124 16 150 22 14 3 44 7 68 9 24 3 47 7 51 9 4 3 34 10 67
15 32 6 73 13 89 16 143 27 236 42 329 52 67 8 389 7 501 -2 98 -7 372 -9 420
-2 22 3 63 9 90 12 126 17 387 123 507 207 14 10 28 18 31 18 3 0 36 19 73 42
145 87 339 188 364 188 5 0 10 4 10 10 0 5 3 9 8 8 4 -1 24 6 46 15 21 9 40
17 42 17 1 0 13 4 26 9 13 5 26 9 31 10 4 0 21 8 37 16 17 9 30 13 30 10 0 -3
10 0 23 7 12 6 27 13 32 14 6 1 36 9 69 19 32 9 66 19 75 20 9 2 16 4 16 5 0
1 7 3 15 5 8 2 24 6 35 9 52 13 223 47 250 51 65 8 122 15 155 20 85 13 201
18 420 17 218 0 270 -2 420 -17 30 -2 89 -7 130 -11 41 -3 86 -7 100 -10 14
-2 77 -7 140 -9 120 -5 218 12 248 42 7 7 17 13 22 13 8 0 79 68 113 109 21
27 147 210 147 216 0 7 104 161 148 219 140 183 318 295 527 331 17 3 71 8
120 11 50 4 91 8 93 9 5 4 636 -3 742 -9z m-14470 -1940 c0 -2 -7 -7 -16 -10
-8 -3 -12 -2 -9 4 6 10 25 14 25 6z"/>
</g>
</svg>
