<svg width="44" height="44" viewBox="0 0 44 44" fill="none" xmlns="http://www.w3.org/2000/svg">
<path d="M28.3596 15.5019L24.9751 14.3765C24.8584 15.1267 25.0918 17.0024 26.609 17.0024C27.8228 17.0024 28.2818 16.0021 28.3596 15.5019Z" fill="#875BF7"/>
<path fill-rule="evenodd" clip-rule="evenodd" d="M24.2763 21.3793L44.0001 26.131V19.7537C44.0001 19.7537 43.7931 18.2639 43.2998 17.5029C42.6219 16.4569 40.7322 15.7522 40.7322 15.7522L33.9631 13.1263L29.5282 9.12481H26.4937L14.0059 5.62354C15.8732 7.33249 19.6546 10.7504 19.8413 10.7504C20.0281 10.7504 29.3337 13.3347 33.9631 14.6268L37.6978 19.5036L24.2763 21.3793ZM38.8645 18.0031C38.8645 18.0031 39.286 19.1264 39.448 19.8788C39.593 20.5517 39.6815 21.6294 39.6815 21.6294L41.3154 20.379C41.3154 20.379 41.2778 19.6519 41.082 19.2536C41.0054 19.0978 40.9521 19.0151 40.8486 18.8784C40.3204 18.1814 38.8645 18.0031 38.8645 18.0031Z" fill="url(#paint0_linear_596_17861)"/>
<path d="M16.6896 16.1273V20.5039L21.7081 26.5061L38.5141 29.7573C38.5141 29.7573 40.2691 29.922 41.1984 29.3821C41.935 28.9542 42.7157 27.7565 42.7157 27.7565L22.2916 22.8798L16.6896 16.1273Z" fill="url(#paint1_linear_596_17861)"/>
<path d="M5.01821 32.5084C5.01821 31.608 5.52395 30.0075 5.83517 29.2572C6.76884 33.7588 9.64766 36.1347 11.3205 37.01L6.76884 36.3848C6.1853 35.4678 5.01821 33.4087 5.01821 32.5084Z" fill="url(#paint2_linear_596_17861)"/>
<path d="M18.4194 35.8625C18.7075 37.2281 20.5974 38.6234 20.5974 38.6234C20.5974 38.6234 20.4288 36.8288 20.7121 35.7425C21.0237 34.5477 21.3816 33.8734 22.2023 32.9816C22.9434 32.1764 23.3855 31.8271 24.3804 31.421C25.3132 31.0404 27.017 30.9409 27.017 30.9409L30.8 30.7008C30.8 30.7008 28.2781 29.9805 26.6731 29.9805C25.0682 29.9805 23.0048 30.0878 22.0877 30.4607C20.7335 31.0113 19.5787 31.6612 18.9925 32.6215C18.5529 33.3417 18.1523 34.5965 18.4194 35.8625Z" fill="url(#paint3_linear_596_17861)"/>
<path d="M0 19.1284C1.3227 17.1277 4.55164 13.6264 8.98658 11.7507C10.037 12.2509 10.6205 13.0012 10.6205 13.0012C10.6205 13.0012 8.91211 14.2207 7.70278 16.0023C5.83544 18.7533 5.3686 21.1291 5.3686 21.1291H2.91772L5.13519 17.7529C4.24042 17.7112 1.96071 17.928 0 19.1284Z" fill="url(#paint4_linear_596_17861)"/>
<path d="M2.21735 32.0081C2.8009 30.1324 4.20146 28.0067 5.25184 26.6312C5.25184 26.6312 5.1579 25.6418 5.13513 25.0056C5.11242 24.3712 5.13513 23.38 5.13513 23.38L2.10065 23.2549C1.86723 24.5888 1.56379 28.2067 2.21735 32.0081Z" fill="url(#paint5_linear_596_17861)"/>
<path d="M4.78478 7.74931C7.6636 7.33249 13.5379 7.49917 16.9225 10.5003C16.6752 10.576 16.3745 10.6403 16.03 10.7139C15.2363 10.8834 14.2105 11.1025 13.0711 11.6257C11.3451 10.9322 10.2672 10.3456 9.22686 9.77936C8.01613 9.1204 6.85623 8.48911 4.78478 7.74931Z" fill="url(#paint6_linear_596_17861)"/>
<path d="M26.727 12.626L28.2443 14.2516L29.7615 14.7518L30.9286 16.1273L36.6473 18.128L33.963 14.6267L26.727 12.626Z" fill="#161B26"/>
<path d="M22.1749 14.0014L21.0078 17.8778L24.3924 21.3791L26.143 21.129L26.7265 19.6284H28.127L29.4108 17.8778C27.5046 18.5864 23.6921 18.528 23.6921 14.1264C23.2669 14.0165 22.6417 14.0014 22.1749 14.0014Z" fill="#161B26"/>
<path d="M20.0744 13.8767C16.1063 13.8767 9.36061 15.9774 9.92081 26.8814H16.4565C15.5229 27.2982 13.6322 28.9321 13.5388 32.1333C12.6051 31.8332 12.2939 31.0079 12.255 30.6328H9.5707C7.93671 25.5059 6.06938 13.2514 18.4406 12.001C18.8839 12.5354 19.2944 12.9934 19.6036 13.3385C19.8153 13.5748 19.9796 13.7581 20.0744 13.8767Z" fill="#161B26"/>
<path d="M15.4065 33.0087V31.7583L17.3905 30.3828C17.6004 30.3828 17.8574 30.4838 18.1403 30.5951C18.4869 30.7314 18.8724 30.883 19.2579 30.883C18.6743 31.1331 18.3601 31.3159 18.0908 31.7583C17.937 32.011 17.8463 32.3219 17.7696 32.585C17.7196 32.7563 17.6756 32.9072 17.6239 33.0087H15.4065Z" fill="#161B26"/>
<defs>
<linearGradient id="paint0_linear_596_17861" x1="0" y1="5.62354" x2="31.6798" y2="47.8635" gradientUnits="userSpaceOnUse">
<stop stop-color="#B39FFF"/>
<stop offset="1" stop-color="#6A1ED2"/>
</linearGradient>
<linearGradient id="paint1_linear_596_17861" x1="0" y1="5.62354" x2="31.6798" y2="47.8635" gradientUnits="userSpaceOnUse">
<stop stop-color="#B39FFF"/>
<stop offset="1" stop-color="#6A1ED2"/>
</linearGradient>
<linearGradient id="paint2_linear_596_17861" x1="0" y1="5.62354" x2="31.6798" y2="47.8635" gradientUnits="userSpaceOnUse">
<stop stop-color="#B39FFF"/>
<stop offset="1" stop-color="#6A1ED2"/>
</linearGradient>
<linearGradient id="paint3_linear_596_17861" x1="0" y1="5.62354" x2="31.6798" y2="47.8635" gradientUnits="userSpaceOnUse">
<stop stop-color="#B39FFF"/>
<stop offset="1" stop-color="#6A1ED2"/>
</linearGradient>
<linearGradient id="paint4_linear_596_17861" x1="0" y1="5.62354" x2="31.6798" y2="47.8635" gradientUnits="userSpaceOnUse">
<stop stop-color="#B39FFF"/>
<stop offset="1" stop-color="#6A1ED2"/>
</linearGradient>
<linearGradient id="paint5_linear_596_17861" x1="0" y1="5.62354" x2="31.6798" y2="47.8635" gradientUnits="userSpaceOnUse">
<stop stop-color="#B39FFF"/>
<stop offset="1" stop-color="#6A1ED2"/>
</linearGradient>
<linearGradient id="paint6_linear_596_17861" x1="0" y1="5.62354" x2="31.6798" y2="47.8635" gradientUnits="userSpaceOnUse">
<stop stop-color="#B39FFF"/>
<stop offset="1" stop-color="#6A1ED2"/>
</linearGradient>
</defs>
</svg>
